ply
format ascii 1.0
comment icosphere with vertex colours
element vertex 42
property float x
property float y
property float z
property uchar red
property uchar green
property uchar blue
element face 80
property list uchar int vertex_indices
end_header
-0.52573 0.85065 0.00000 60 235 127
0.52573 0.85065 0.00000 194 235 127
-0.52573 -0.85065 0.00000 60 19 127
0.52573 -0.85065 0.00000 194 19 127
0.00000 -0.52573 0.85065 127 60 235
0.00000 0.52573 0.85065 127 194 235
0.00000 -0.52573 -0.85065 127 60 19
0.00000 0.52573 -0.85065 127 194 19
0.85065 0.00000 -0.52573 235 127 60
0.85065 0.00000 0.52573 235 127 194
-0.85065 0.00000 -0.52573 19 127 60
-0.85065 0.00000 0.52573 19 127 194
-0.80902 0.50000 0.30902 24 191 166
-0.50000 0.30902 0.80902 63 166 230
-0.30902 0.80902 0.50000 88 230 191
0.30902 0.80902 0.50000 166 230 191
0.00000 1.00000 0.00000 127 255 127
0.30902 0.80902 -0.50000 166 230 63
-0.30902 0.80902 -0.50000 88 230 63
-0.50000 0.30902 -0.80902 63 166 24
-0.80902 0.50000 -0.30902 24 191 88
-1.00000 0.00000 0.00000 0 127 127
0.50000 0.30902 0.80902 191 166 230
0.80902 0.50000 0.30902 230 191 166
-0.50000 -0.30902 0.80902 63 88 230
0.00000 0.00000 1.00000 127 127 255
-0.80902 -0.50000 -0.30902 24 63 88
-0.80902 -0.50000 0.30902 24 63 166
0.00000 0.00000 -1.00000 127 127 0
-0.50000 -0.30902 -0.80902 63 88 24
0.80902 0.50000 -0.30902 230 191 88
0.50000 0.30902 -0.80902 191 166 24
0.80902 -0.50000 0.30902 230 63 166
0.50000 -0.30902 0.80902 191 88 230
0.30902 -0.80902 0.50000 166 24 191
-0.30902 -0.80902 0.50000 88 24 191
0.00000 -1.00000 0.00000 127 0 127
-0.30902 -0.80902 -0.50000 88 24 63
0.30902 -0.80902 -0.50000 166 24 63
0.50000 -0.30902 -0.80902 191 88 24
0.80902 -0.50000 -0.30902 230 63 88
1.00000 0.00000 0.00000 255 127 127
3 0 12 14
3 11 13 12
3 5 14 13
3 12 13 14
3 0 14 16
3 5 15 14
3 1 16 15
3 14 15 16
3 0 16 18
3 1 17 16
3 7 18 17
3 16 17 18
3 0 18 20
3 7 19 18
3 10 20 19
3 18 19 20
3 0 20 12
3 10 21 20
3 11 12 21
3 20 21 12
3 1 15 23
3 5 22 15
3 9 23 22
3 15 22 23
3 5 13 25
3 11 24 13
3 4 25 24
3 13 24 25
3 11 21 27
3 10 26 21
3 2 27 26
3 21 26 27
3 10 19 29
3 7 28 19
3 6 29 28
3 19 28 29
3 7 17 31
3 1 30 17
3 8 31 30
3 17 30 31
3 3 32 34
3 9 33 32
3 4 34 33
3 32 33 34
3 3 34 36
3 4 35 34
3 2 36 35
3 34 35 36
3 3 36 38
3 2 37 36
3 6 38 37
3 36 37 38
3 3 38 40
3 6 39 38
3 8 40 39
3 38 39 40
3 3 40 32
3 8 41 40
3 9 32 41
3 40 41 32
3 4 33 25
3 9 22 33
3 5 25 22
3 33 22 25
3 2 35 27
3 4 24 35
3 11 27 24
3 35 24 27
3 6 37 29
3 2 26 37
3 10 29 26
3 37 26 29
3 8 39 31
3 6 28 39
3 7 31 28
3 39 28 31
3 9 41 23
3 8 30 41
3 1 23 30
3 41 30 23
